<svg width="297" height="382" viewBox="0 0 297 382" fill="none" xmlns="http://www.w3.org/2000/svg">
    <path fill-rule="evenodd" clip-rule="evenodd" d="M140.244 158.469C140.254 158.466 140.263 158.462 140.273 158.459L140.153 158.118C138.85 158.578 138.178 159.665 137.863 160.802C137.552 161.929 137.583 163.131 137.708 163.903C137.697 164.706 137.568 165.557 137.358 166.419L137.325 166.419L137.325 166.554C137.09 167.485 136.765 168.427 136.397 169.334C135.667 171.131 134.774 172.78 134.101 173.916L134.065 173.977L134.08 174.047C135.932 182.56 134.014 190.245 130.932 197.096C129.391 200.522 127.56 203.737 125.766 206.742C125.268 207.575 124.772 208.393 124.286 209.195C123.533 210.438 122.804 211.642 122.125 212.806L121.457 213.845C112.61 221.401 107 232.644 107 245.198C107 267.95 125.426 286.394 148.155 286.394C170.885 286.394 189.31 267.95 189.31 245.198C189.31 232.932 183.955 221.918 175.457 214.371L174.856 213.512C174.064 212.131 173.193 210.691 172.287 209.196L172.286 209.195L172.285 209.193L172.283 209.189C172.05 208.806 171.816 208.419 171.58 208.028L165.775 197.395C165.73 197.295 165.685 197.196 165.64 197.096C162.558 190.245 160.641 182.56 162.492 174.047L162.508 173.977L162.471 173.916C161.799 172.78 160.905 171.131 160.176 169.334C159.783 168.367 159.44 167.361 159.203 166.372L158.877 164.259C158.87 164.14 158.866 164.021 158.864 163.903C158.989 163.131 159.021 161.929 158.709 160.802C158.395 159.665 157.722 158.578 156.42 158.118L156.299 158.459C156.309 158.462 156.319 158.466 156.328 158.469L140.244 158.469ZM133.591 191.079L133.599 191.039L133.576 191.118L133.591 191.079ZM137.884 165.685L137.884 165.697L137.882 165.697L137.884 165.685Z" fill="#A1F394" fill-opacity="0.5"/>
    <path fill-rule="evenodd" clip-rule="evenodd" d="M140.244 158.469C140.254 158.466 140.263 158.462 140.273 158.459L140.153 158.118C138.85 158.578 138.178 159.665 137.863 160.802C137.552 161.929 137.583 163.131 137.708 163.903C137.697 164.706 137.568 165.557 137.358 166.419L137.325 166.419L137.325 166.554C137.09 167.485 136.765 168.427 136.397 169.334C135.667 171.131 134.774 172.78 134.101 173.916L134.065 173.977L134.08 174.047C135.932 182.56 134.014 190.245 130.932 197.096C129.391 200.522 127.56 203.737 125.766 206.742C125.268 207.575 124.772 208.393 124.286 209.195C123.533 210.438 122.804 211.642 122.125 212.806L121.457 213.845C112.61 221.401 107 232.644 107 245.198C107 267.95 125.426 286.394 148.155 286.394C170.885 286.394 189.31 267.95 189.31 245.198C189.31 232.932 183.955 221.918 175.457 214.371L174.856 213.512C174.064 212.131 173.193 210.691 172.287 209.196L172.286 209.195L172.285 209.193L172.283 209.189C172.05 208.806 171.816 208.419 171.58 208.028L165.775 197.395C165.73 197.295 165.685 197.196 165.64 197.096C162.558 190.245 160.641 182.56 162.492 174.047L162.508 173.977L162.471 173.916C161.799 172.78 160.905 171.131 160.176 169.334C159.783 168.367 159.44 167.361 159.203 166.372L158.877 164.259C158.87 164.14 158.866 164.021 158.864 163.903C158.989 163.131 159.021 161.929 158.709 160.802C158.395 159.665 157.722 158.578 156.42 158.118L156.299 158.459C156.309 158.462 156.319 158.466 156.328 158.469L140.244 158.469ZM133.591 191.079L133.599 191.039L133.576 191.118L133.591 191.079ZM137.884 165.685L137.884 165.697L137.882 165.697L137.884 165.685Z" fill="url(#paint0_radial_1573_3880)"/>

        <path d="M158.09 160.86L137.729 160.86L136.573 157.052L137.432 154.475L136.573 153.713L136.001 152.443L136.573 151.173L138.004 150.411L136.573 149.903L136.001 148.379L136.573 146.855L138.004 146.347L136.573 145.586L136.001 144.316L136.573 142.792L138.004 142.284L136.573 141.522L136.001 140.252L136.573 138.982L138.004 138.474L136.573 137.712L136.001 136.188L136.573 134.918L138.004 135.172L148.593 130.394L158.493 135.172L158.732 135.132L159.989 134.918L160.587 136.188L159.989 137.712L158.493 138.474L159.989 138.982L160.587 140.252L159.989 141.522L158.493 142.284L159.989 142.792L160.587 144.316L159.989 145.586L158.493 146.347L159.989 146.855L160.587 148.379L159.989 149.903L158.493 150.411L159.989 151.173L160.587 152.443L159.989 153.713L159.091 154.475L159.989 157.414L158.09 160.86Z" fill="black"/>

    <line x1="148.084" y1="133.005" x2="147.32" y2="0.00722318" stroke="black" stroke-width="2.55667"/>
    <path d="M296.035 246.001C296.035 321.113 229.765 382.002 148.017 382.002C66.2696 382.002 0 321.113 0 246.001C0 170.89 66.2696 110 148.017 110C229.765 110 296.035 170.89 296.035 246.001Z" fill="#A1F394" fill-opacity="0.1"/>
    <path d="M266.431 246.001C266.431 306.09 213.416 354.802 148.017 354.802C82.6192 354.802 29.6035 306.09 29.6035 246.001C29.6035 185.912 82.6192 137.2 148.017 137.2C213.416 137.2 266.431 185.912 266.431 246.001Z" fill="#A1F394" fill-opacity="0.1"/>
    <path d="M236.828 246.001C236.828 291.068 197.066 327.602 148.017 327.602C98.9688 327.602 59.207 291.068 59.207 246.001C59.207 200.934 98.9688 164.4 148.017 164.4C197.066 164.4 236.828 200.934 236.828 246.001Z" fill="#A1F394" fill-opacity="0.1"/>
    <path d="M207.224 249.001C207.224 279.046 180.716 303.402 148.017 303.402C115.318 303.402 88.8103 279.046 88.8103 249.001C88.8103 218.957 115.318 194.601 148.017 194.601C180.716 194.601 207.224 218.957 207.224 249.001Z" fill="#A1F394" fill-opacity="0.1"/>
    <defs>
        <radialGradient id="paint0_radial_1573_3880" cx="0" cy="0" r="1" gradientUnits="userSpaceOnUse" gradientTransform="translate(148 246) rotate(90) scale(40 41)">
            <stop stop-color="#A1F394"/>
            <stop offset="1" stop-color="#A1F394" stop-opacity="0"/>
        </radialGradient>
    </defs>
</svg>
