<svg width="297" height="382" viewBox="0 0 297 382" fill="none" xmlns="http://www.w3.org/2000/svg">
<g filter="url(#filter0_i_557_2912)">
<path d="M158.09 160.86L137.729 160.86L136.573 157.052L137.432 154.475L136.573 153.713L136.001 152.443L136.573 151.173L138.004 150.411L136.573 149.903L136.001 148.379L136.573 146.856L138.004 146.348L136.573 145.586L136.001 144.316L136.573 142.792L138.004 142.284L136.573 141.522L136.001 140.252L136.573 138.982L138.004 138.474L136.573 137.712L136.001 136.188L136.573 134.918L138.004 135.172L148.593 130.394L158.493 135.172L158.732 135.132L159.989 134.918L160.587 136.188L159.989 137.712L158.493 138.474L159.989 138.982L160.587 140.252L159.989 141.522L158.493 142.284L159.989 142.792L160.587 144.316L159.989 145.586L158.493 146.348L159.989 146.856L160.587 148.379L159.989 149.903L158.493 150.411L159.989 151.173L160.587 152.443L159.989 153.713L159.091 154.475L159.989 157.414L158.09 160.86Z" fill="black"/>
</g>
<path fill-rule="evenodd" clip-rule="evenodd" d="M141.452 158.469C141.461 158.466 141.471 158.462 141.48 158.459L141.36 158.118C140.057 158.579 139.385 159.665 139.07 160.802C138.759 161.929 138.79 163.131 138.915 163.903C138.904 164.706 138.775 165.557 138.565 166.419L138.532 166.419L138.532 166.554C138.298 167.485 137.972 168.427 137.604 169.334C136.874 171.131 135.981 172.78 135.308 173.916L135.272 173.977L135.287 174.047C137.139 182.56 135.221 190.245 132.14 197.096C130.599 200.522 128.768 203.737 126.973 206.742C126.475 207.575 125.979 208.393 125.493 209.195C124.741 210.438 124.011 211.642 123.332 212.807L122.665 213.845C113.817 221.401 108.207 232.644 108.207 245.198C108.207 267.95 126.633 286.394 149.362 286.394C172.092 286.394 190.518 267.95 190.518 245.198C190.518 232.932 185.162 221.918 176.664 214.371L176.063 213.512C175.272 212.131 174.4 210.692 173.494 209.197L173.494 209.196L173.493 209.195L173.492 209.193L173.49 209.19C173.258 208.806 173.023 208.419 172.787 208.029L166.982 197.395C166.937 197.295 166.892 197.196 166.847 197.096C163.766 190.245 161.848 182.56 163.7 174.047L163.715 173.977L163.679 173.916C163.006 172.78 162.113 171.131 161.383 169.334C160.99 168.367 160.647 167.361 160.41 166.372L160.084 164.26C160.077 164.14 160.073 164.021 160.072 163.903C160.197 163.131 160.228 161.929 159.916 160.802C159.602 159.665 158.93 158.579 157.627 158.118L157.507 158.459C157.516 158.462 157.526 158.466 157.535 158.469L141.452 158.469ZM134.799 191.079L134.806 191.039L134.783 191.118L134.799 191.079ZM139.091 165.685L139.091 165.697L139.089 165.697L139.091 165.685Z" fill="#A1F394" fill-opacity="0.26"/>
<mask id="path-3-inside-1_557_2912" fill="white">
<path fill-rule="evenodd" clip-rule="evenodd" d="M140.598 160.073C140.608 160.069 140.618 160.066 140.627 160.063L140.506 159.722C139.195 160.182 138.518 161.268 138.202 162.405C137.888 163.532 137.92 164.734 138.046 165.507C138.035 166.309 137.905 167.16 137.694 168.023L137.66 168.023L137.66 168.158C137.424 169.088 137.097 170.03 136.726 170.938C135.991 172.735 135.092 174.384 134.415 175.52L134.379 175.581L134.394 175.65C136.258 184.164 134.328 191.849 131.226 198.7C129.675 202.126 127.832 205.341 126.026 208.345C125.525 209.179 125.026 209.997 124.537 210.799C123.779 212.041 123.045 213.246 122.361 214.41L121.69 215.449C112.785 223.005 107.138 234.247 107.138 246.802C107.138 269.554 125.684 287.998 148.561 287.998C171.438 287.998 189.983 269.554 189.983 246.802C189.983 234.536 184.593 223.522 176.04 215.975L175.435 215.116C174.638 213.734 173.761 212.295 172.849 210.8L172.849 210.799L172.848 210.799L172.847 210.796L172.845 210.793C172.611 210.41 172.375 210.023 172.138 209.632L166.295 198.998C166.249 198.899 166.204 198.8 166.159 198.7C163.057 191.849 161.127 184.164 162.991 175.65L163.006 175.581L162.97 175.52C162.293 174.384 161.394 172.735 160.659 170.938C160.264 169.971 159.919 168.965 159.68 167.975L159.352 165.863C159.345 165.743 159.341 165.625 159.339 165.507C159.465 164.734 159.497 163.532 159.183 162.405C158.867 161.268 158.19 160.182 156.879 159.722L156.758 160.063C156.767 160.066 156.777 160.069 156.787 160.073L140.598 160.073ZM133.902 192.682L133.91 192.643L133.886 192.721L133.902 192.682ZM138.223 167.289L138.223 167.3L138.221 167.3L138.223 167.289Z"/>
</mask>
<path d="M133.91 192.643L136.534 193.151L131.352 191.871L133.91 192.643ZM133.902 192.682L136.373 193.7L136.475 193.454L136.526 193.191L133.902 192.682ZM133.886 192.721L131.328 191.95L136.357 193.739L133.886 192.721ZM138.223 167.3L138.223 169.973L140.91 169.973L140.895 167.286L138.223 167.3ZM138.223 167.289L140.895 167.275L135.595 166.803L138.223 167.289ZM138.221 167.3L135.593 166.815L135.01 169.973L138.221 169.973L138.221 167.3ZM140.598 160.073L139.689 157.56L140.598 162.745L140.598 160.073ZM140.627 160.063L141.513 162.584L144.043 161.696L143.146 159.169L140.627 160.063ZM140.506 159.722L143.025 158.828L142.134 156.318L139.621 157.2L140.506 159.722ZM138.202 162.405L140.777 163.122L140.777 163.122L138.202 162.405ZM138.046 165.507L140.718 165.544L140.721 165.309L140.683 165.077L138.046 165.507ZM137.694 168.023L137.694 170.695L139.792 170.695L140.29 168.657L137.694 168.023ZM137.66 168.023L137.66 165.351L134.988 165.351L134.988 168.023L137.66 168.023ZM137.66 168.158L140.25 168.815L140.333 168.491L140.333 168.158L137.66 168.158ZM136.726 170.938L134.252 169.927L136.726 170.938ZM134.415 175.52L136.711 176.888L136.711 176.888L134.415 175.52ZM134.379 175.581L132.083 174.212L131.542 175.12L131.768 176.152L134.379 175.581ZM134.394 175.65L137.005 175.079L137.005 175.079L134.394 175.65ZM131.226 198.7L133.661 199.802L131.226 198.7ZM126.026 208.345L123.735 206.968L123.735 206.968L126.026 208.345ZM124.537 210.799L126.818 212.19L124.537 210.799ZM122.361 214.41L124.605 215.861L124.637 215.813L124.666 215.763L122.361 214.41ZM121.69 215.449L123.419 217.486L123.72 217.231L123.934 216.9L121.69 215.449ZM176.04 215.975L173.855 217.514L174.036 217.771L174.272 217.979L176.04 215.975ZM175.435 215.116L173.119 216.45L173.18 216.555L173.25 216.655L175.435 215.116ZM172.849 210.8L170.567 212.191L170.567 212.191L172.849 210.8ZM172.849 210.799L175.13 209.408L175.124 209.398L172.849 210.799ZM172.848 210.799L170.568 212.192L170.573 212.2L172.848 210.799ZM172.847 210.796L170.564 212.185L170.566 212.189L172.847 210.796ZM172.845 210.793L175.128 209.404L175.127 209.402L172.845 210.793ZM172.138 209.632L169.796 210.919L169.824 210.97L169.854 211.02L172.138 209.632ZM166.295 198.998L163.866 200.114L163.907 200.201L163.953 200.285L166.295 198.998ZM166.159 198.7L163.724 199.802L163.724 199.802L166.159 198.7ZM162.991 175.65L160.381 175.079L160.381 175.079L162.991 175.65ZM163.006 175.581L165.617 176.152L165.843 175.12L165.302 174.213L163.006 175.581ZM162.97 175.52L160.674 176.888L160.674 176.888L162.97 175.52ZM160.659 170.938L158.186 171.949L160.659 170.938ZM159.68 167.975L157.039 168.386L157.056 168.494L157.082 168.602L159.68 167.975ZM159.352 165.863L156.684 166.011L156.691 166.143L156.711 166.273L159.352 165.863ZM159.339 165.507L156.702 165.077L156.664 165.309L156.667 165.544L159.339 165.507ZM159.183 162.405L156.609 163.122L156.609 163.122L159.183 162.405ZM156.879 159.722L157.764 157.2L155.251 156.318L154.36 158.828L156.879 159.722ZM156.758 160.063L154.239 159.169L153.342 161.696L155.873 162.584L156.758 160.063ZM156.787 160.073L156.787 162.745L157.696 157.56L156.787 160.073ZM131.287 192.134L131.279 192.174L136.526 193.191L136.534 193.151L131.287 192.134ZM136.445 193.493L136.469 193.414L131.352 191.871L131.328 191.95L136.445 193.493ZM131.432 191.664L131.416 191.703L136.357 193.739L136.373 193.7L131.432 191.664ZM140.895 167.286L140.895 167.275L135.551 167.303L135.551 167.315L140.895 167.286ZM138.221 169.973L138.223 169.973L138.223 164.628L138.221 164.628L138.221 169.973ZM135.595 166.803L135.593 166.815L140.849 167.786L140.851 167.774L135.595 166.803ZM141.508 162.586C141.509 162.585 141.511 162.585 141.513 162.584L139.742 157.541C139.725 157.547 139.707 157.553 139.689 157.56L141.508 162.586ZM143.146 159.169L143.025 158.828L137.988 160.616L138.109 160.956L143.146 159.169ZM139.621 157.2C137.196 158.052 136.081 160.058 135.627 161.689L140.777 163.122C140.865 162.804 140.977 162.594 141.077 162.468C141.161 162.362 141.249 162.293 141.392 162.243L139.621 157.2ZM135.627 161.689C135.186 163.275 135.236 164.881 135.408 165.937L140.683 165.077C140.604 164.587 140.591 163.79 140.777 163.122L135.627 161.689ZM135.374 165.47C135.366 166.019 135.275 166.664 135.098 167.389L140.29 168.657C140.534 167.657 140.703 166.599 140.718 165.544L135.374 165.47ZM137.694 165.351L137.66 165.351L137.66 170.695L137.694 170.695L137.694 165.351ZM134.988 168.023L134.988 168.158L140.333 168.158L140.333 168.023L134.988 168.023ZM135.07 167.501C134.871 168.283 134.588 169.104 134.252 169.927L139.2 171.949C139.605 170.956 139.977 169.894 140.25 168.815L135.07 167.501ZM134.252 169.927C133.584 171.562 132.754 173.087 132.12 174.151L136.711 176.888C137.431 175.68 138.399 173.908 139.2 171.949L134.252 169.927ZM132.12 174.151L132.083 174.212L136.674 176.949L136.711 176.888L132.12 174.151ZM131.768 176.152L131.783 176.222L137.005 175.079L136.989 175.009L131.768 176.152ZM131.783 176.222C133.481 183.974 131.756 191.049 128.792 197.598L133.661 199.802C136.899 192.649 139.035 184.353 137.005 175.079L131.783 176.222ZM128.792 197.598C127.306 200.88 125.526 203.99 123.735 206.968L128.316 209.722C130.138 206.692 132.045 203.372 133.661 199.802L128.792 197.598ZM123.735 206.968C123.239 207.794 122.745 208.605 122.255 209.408L126.818 212.19C127.307 211.389 127.81 210.564 128.316 209.722L123.735 206.968ZM122.255 209.408C121.5 210.646 120.753 211.87 120.057 213.057L124.666 215.763C125.336 214.622 126.058 213.437 126.818 212.19L122.255 209.408ZM120.117 212.959L119.445 213.998L123.934 216.9L124.605 215.861L120.117 212.959ZM119.961 213.411C110.485 221.451 104.466 233.427 104.466 246.802L109.811 246.802C109.811 235.068 115.084 224.558 123.419 217.486L119.961 213.411ZM104.466 246.802C104.466 271.043 124.222 290.67 148.561 290.67L148.561 285.325C127.146 285.325 109.811 268.064 109.811 246.802L104.466 246.802ZM148.561 290.67C172.9 290.67 192.656 271.043 192.656 246.802L187.311 246.802C187.311 268.064 169.976 285.325 148.561 285.325L148.561 290.67ZM192.656 246.802C192.656 233.734 186.91 222.002 177.808 213.971L174.272 217.979C182.276 225.042 187.311 235.337 187.311 246.802L192.656 246.802ZM178.225 214.436L177.619 213.576L173.25 216.655L173.855 217.514L178.225 214.436ZM177.75 213.781C176.934 212.366 176.039 210.898 175.131 209.409L170.567 212.191C171.483 213.692 172.342 215.103 173.119 216.45L177.75 213.781ZM175.131 209.409L175.13 209.408L170.567 212.19L170.567 212.191L175.131 209.409ZM175.124 209.398L175.124 209.398L170.573 212.2L170.573 212.201L175.124 209.398ZM175.13 209.408L175.128 209.404L170.562 212.182L170.564 212.185L175.13 209.408ZM175.127 209.402C174.893 209.018 174.658 208.633 174.421 208.244L169.854 211.02C170.093 211.413 170.33 211.801 170.563 212.184L175.127 209.402ZM174.48 208.345L168.637 197.711L163.953 200.285L169.796 210.919L174.48 208.345ZM168.724 197.883C168.68 197.788 168.637 197.693 168.594 197.598L163.724 199.802C163.772 199.906 163.819 200.01 163.866 200.114L168.724 197.883ZM168.594 197.598C165.629 191.049 163.905 183.974 165.602 176.222L160.381 175.079C158.35 184.353 160.486 192.649 163.724 199.802L168.594 197.598ZM165.602 176.222L165.617 176.152L160.396 175.009L160.381 175.079L165.602 176.222ZM165.302 174.213L165.265 174.151L160.674 176.888L160.711 176.949L165.302 174.213ZM165.265 174.151C164.631 173.087 163.801 171.562 163.133 169.927L158.186 171.949C158.986 173.908 159.955 175.68 160.674 176.888L165.265 174.151ZM163.133 169.927C162.775 169.049 162.477 168.175 162.278 167.349L157.082 168.602C157.36 169.755 157.754 170.892 158.186 171.949L163.133 169.927ZM162.321 167.565L161.993 165.453L156.711 166.273L157.039 168.386L162.321 167.565ZM162.02 165.715C162.016 165.631 162.013 165.549 162.012 165.47L156.667 165.544C156.669 165.7 156.675 165.856 156.684 166.011L162.02 165.715ZM161.977 165.937C162.149 164.881 162.199 163.275 161.758 161.689L156.609 163.122C156.795 163.79 156.782 164.587 156.702 165.077L161.977 165.937ZM161.758 161.689C161.304 160.058 160.189 158.052 157.764 157.2L155.994 162.243C156.136 162.293 156.225 162.362 156.308 162.468C156.408 162.594 156.52 162.804 156.609 163.122L161.758 161.689ZM154.36 158.828L154.239 159.169L159.276 160.956L159.397 160.616L154.36 158.828ZM155.873 162.584C155.874 162.585 155.876 162.585 155.877 162.586L157.696 157.56C157.678 157.553 157.66 157.547 157.643 157.541L155.873 162.584ZM175.129 209.406L175.128 209.404L170.566 212.189L170.568 212.192L175.129 209.406ZM140.598 162.745L156.787 162.745L156.787 157.4L140.598 157.4L140.598 162.745Z" fill="#A1F394" mask="url(#path-3-inside-1_557_2912)"/>
<g filter="url(#filter1_f_557_2912)">
<mask id="path-5-inside-2_557_2912" fill="white">
<path fill-rule="evenodd" clip-rule="evenodd" d="M140.598 160.073C140.608 160.069 140.618 160.066 140.627 160.063L140.506 159.722C139.195 160.182 138.518 161.268 138.202 162.405C137.888 163.532 137.92 164.734 138.046 165.507C138.035 166.309 137.905 167.16 137.694 168.023L137.66 168.023L137.66 168.158C137.424 169.088 137.097 170.03 136.726 170.938C135.991 172.735 135.092 174.384 134.415 175.52L134.379 175.581L134.394 175.65C136.258 184.164 134.328 191.849 131.226 198.7C129.675 202.126 127.832 205.341 126.026 208.345C125.525 209.179 125.026 209.997 124.537 210.799C123.779 212.041 123.045 213.246 122.361 214.41L121.69 215.449C112.785 223.005 107.138 234.247 107.138 246.802C107.138 269.554 125.684 287.998 148.561 287.998C171.438 287.998 189.983 269.554 189.983 246.802C189.983 234.536 184.593 223.522 176.04 215.975L175.435 215.116C174.638 213.734 173.761 212.295 172.849 210.8L172.849 210.799L172.848 210.799L172.847 210.796L172.845 210.793C172.611 210.41 172.375 210.023 172.138 209.632L166.295 198.998C166.249 198.899 166.204 198.8 166.159 198.7C163.057 191.849 161.127 184.164 162.991 175.65L163.006 175.581L162.97 175.52C162.293 174.384 161.394 172.735 160.659 170.938C160.264 169.971 159.919 168.965 159.68 167.975L159.352 165.863C159.345 165.743 159.341 165.625 159.339 165.507C159.465 164.734 159.497 163.532 159.183 162.405C158.867 161.268 158.19 160.182 156.879 159.722L156.758 160.063C156.767 160.066 156.777 160.069 156.787 160.073L140.598 160.073ZM133.902 192.682L133.91 192.643L133.886 192.721L133.902 192.682ZM138.223 167.289L138.223 167.3L138.221 167.3L138.223 167.289Z"/>
</mask>
<path d="M133.91 192.643L136.534 193.151L131.352 191.871L133.91 192.643ZM133.902 192.682L136.373 193.7L136.475 193.454L136.526 193.191L133.902 192.682ZM133.886 192.721L131.328 191.95L136.357 193.739L133.886 192.721ZM138.223 167.3L138.223 169.973L140.91 169.973L140.895 167.286L138.223 167.3ZM138.223 167.289L140.895 167.275L135.595 166.803L138.223 167.289ZM138.221 167.3L135.593 166.815L135.01 169.973L138.221 169.973L138.221 167.3ZM140.598 160.073L139.689 157.56L140.598 162.745L140.598 160.073ZM140.627 160.063L141.513 162.584L144.043 161.696L143.146 159.169L140.627 160.063ZM140.506 159.722L143.025 158.828L142.134 156.318L139.621 157.2L140.506 159.722ZM138.202 162.405L140.777 163.122L140.777 163.122L138.202 162.405ZM138.046 165.507L140.718 165.544L140.721 165.309L140.683 165.077L138.046 165.507ZM137.694 168.023L137.694 170.695L139.792 170.695L140.29 168.657L137.694 168.023ZM137.66 168.023L137.66 165.351L134.988 165.351L134.988 168.023L137.66 168.023ZM137.66 168.158L140.25 168.815L140.333 168.491L140.333 168.158L137.66 168.158ZM136.726 170.938L134.252 169.927L136.726 170.938ZM134.415 175.52L136.711 176.888L136.711 176.888L134.415 175.52ZM134.379 175.581L132.083 174.212L131.542 175.12L131.768 176.152L134.379 175.581ZM134.394 175.65L137.005 175.079L137.005 175.079L134.394 175.65ZM131.226 198.7L133.661 199.802L131.226 198.7ZM126.026 208.345L123.735 206.968L123.735 206.968L126.026 208.345ZM124.537 210.799L126.818 212.19L124.537 210.799ZM122.361 214.41L124.605 215.861L124.637 215.813L124.666 215.763L122.361 214.41ZM121.69 215.449L123.419 217.486L123.72 217.231L123.934 216.9L121.69 215.449ZM176.04 215.975L173.855 217.514L174.036 217.771L174.272 217.979L176.04 215.975ZM175.435 215.116L173.119 216.45L173.18 216.555L173.25 216.655L175.435 215.116ZM172.849 210.8L170.567 212.191L170.567 212.191L172.849 210.8ZM172.849 210.799L175.13 209.408L175.124 209.398L172.849 210.799ZM172.848 210.799L170.568 212.192L170.573 212.2L172.848 210.799ZM172.847 210.796L170.564 212.185L170.566 212.189L172.847 210.796ZM172.845 210.793L175.128 209.404L175.127 209.402L172.845 210.793ZM172.138 209.632L169.796 210.919L169.824 210.97L169.854 211.02L172.138 209.632ZM166.295 198.998L163.866 200.114L163.907 200.201L163.953 200.285L166.295 198.998ZM166.159 198.7L163.724 199.802L163.724 199.802L166.159 198.7ZM162.991 175.65L160.381 175.079L160.381 175.079L162.991 175.65ZM163.006 175.581L165.617 176.152L165.843 175.12L165.302 174.213L163.006 175.581ZM162.97 175.52L160.674 176.888L160.674 176.888L162.97 175.52ZM160.659 170.938L158.186 171.949L160.659 170.938ZM159.68 167.975L157.039 168.386L157.056 168.494L157.082 168.602L159.68 167.975ZM159.352 165.863L156.684 166.011L156.691 166.143L156.711 166.273L159.352 165.863ZM159.339 165.507L156.702 165.077L156.664 165.309L156.667 165.544L159.339 165.507ZM159.183 162.405L156.609 163.122L156.609 163.122L159.183 162.405ZM156.879 159.722L157.764 157.2L155.251 156.318L154.36 158.828L156.879 159.722ZM156.758 160.063L154.239 159.169L153.342 161.696L155.873 162.584L156.758 160.063ZM156.787 160.073L156.787 162.745L157.696 157.56L156.787 160.073ZM131.287 192.134L131.279 192.174L136.526 193.191L136.534 193.151L131.287 192.134ZM136.445 193.493L136.469 193.414L131.352 191.871L131.328 191.95L136.445 193.493ZM131.432 191.664L131.416 191.703L136.357 193.739L136.373 193.7L131.432 191.664ZM140.895 167.286L140.895 167.275L135.551 167.303L135.551 167.315L140.895 167.286ZM138.221 169.973L138.223 169.973L138.223 164.628L138.221 164.628L138.221 169.973ZM135.595 166.803L135.593 166.815L140.849 167.786L140.851 167.774L135.595 166.803ZM141.508 162.586C141.509 162.585 141.511 162.585 141.513 162.584L139.742 157.541C139.725 157.547 139.707 157.553 139.689 157.56L141.508 162.586ZM143.146 159.169L143.025 158.828L137.988 160.616L138.109 160.956L143.146 159.169ZM139.621 157.2C137.196 158.052 136.081 160.058 135.627 161.689L140.777 163.122C140.865 162.804 140.977 162.594 141.077 162.468C141.161 162.362 141.249 162.293 141.392 162.243L139.621 157.2ZM135.627 161.689C135.186 163.275 135.236 164.881 135.408 165.937L140.683 165.077C140.604 164.587 140.591 163.79 140.777 163.122L135.627 161.689ZM135.374 165.47C135.366 166.019 135.275 166.664 135.098 167.389L140.29 168.657C140.534 167.657 140.703 166.599 140.718 165.544L135.374 165.47ZM137.694 165.351L137.66 165.351L137.66 170.695L137.694 170.695L137.694 165.351ZM134.988 168.023L134.988 168.158L140.333 168.158L140.333 168.023L134.988 168.023ZM135.07 167.501C134.871 168.283 134.588 169.104 134.252 169.927L139.2 171.949C139.605 170.956 139.977 169.894 140.25 168.815L135.07 167.501ZM134.252 169.927C133.584 171.562 132.754 173.087 132.12 174.151L136.711 176.888C137.431 175.68 138.399 173.908 139.2 171.949L134.252 169.927ZM132.12 174.151L132.083 174.212L136.674 176.949L136.711 176.888L132.12 174.151ZM131.768 176.152L131.783 176.222L137.005 175.079L136.989 175.009L131.768 176.152ZM131.783 176.222C133.481 183.974 131.756 191.049 128.792 197.598L133.661 199.802C136.899 192.649 139.035 184.353 137.005 175.079L131.783 176.222ZM128.792 197.598C127.306 200.88 125.526 203.99 123.735 206.968L128.316 209.722C130.138 206.692 132.045 203.372 133.661 199.802L128.792 197.598ZM123.735 206.968C123.239 207.794 122.745 208.605 122.255 209.408L126.818 212.19C127.307 211.389 127.81 210.564 128.316 209.722L123.735 206.968ZM122.255 209.408C121.5 210.646 120.753 211.87 120.057 213.057L124.666 215.763C125.336 214.622 126.058 213.437 126.818 212.19L122.255 209.408ZM120.117 212.959L119.445 213.998L123.934 216.9L124.605 215.861L120.117 212.959ZM119.961 213.411C110.485 221.451 104.466 233.427 104.466 246.802L109.811 246.802C109.811 235.068 115.084 224.558 123.419 217.486L119.961 213.411ZM104.466 246.802C104.466 271.043 124.222 290.67 148.561 290.67L148.561 285.325C127.146 285.325 109.811 268.064 109.811 246.802L104.466 246.802ZM148.561 290.67C172.9 290.67 192.656 271.043 192.656 246.802L187.311 246.802C187.311 268.064 169.976 285.325 148.561 285.325L148.561 290.67ZM192.656 246.802C192.656 233.734 186.91 222.002 177.808 213.971L174.272 217.979C182.276 225.042 187.311 235.337 187.311 246.802L192.656 246.802ZM178.225 214.436L177.619 213.576L173.25 216.655L173.855 217.514L178.225 214.436ZM177.75 213.781C176.934 212.366 176.039 210.898 175.131 209.409L170.567 212.191C171.483 213.692 172.342 215.103 173.119 216.45L177.75 213.781ZM175.131 209.409L175.13 209.408L170.567 212.19L170.567 212.191L175.131 209.409ZM175.124 209.398L175.124 209.398L170.573 212.2L170.573 212.201L175.124 209.398ZM175.13 209.408L175.128 209.404L170.562 212.182L170.564 212.185L175.13 209.408ZM175.127 209.402C174.893 209.018 174.658 208.633 174.421 208.244L169.854 211.02C170.093 211.413 170.33 211.801 170.563 212.184L175.127 209.402ZM174.48 208.345L168.637 197.711L163.953 200.285L169.796 210.919L174.48 208.345ZM168.724 197.883C168.68 197.788 168.637 197.693 168.594 197.598L163.724 199.802C163.772 199.906 163.819 200.01 163.866 200.114L168.724 197.883ZM168.594 197.598C165.629 191.049 163.905 183.974 165.602 176.222L160.381 175.079C158.35 184.353 160.486 192.649 163.724 199.802L168.594 197.598ZM165.602 176.222L165.617 176.152L160.396 175.009L160.381 175.079L165.602 176.222ZM165.302 174.213L165.265 174.151L160.674 176.888L160.711 176.949L165.302 174.213ZM165.265 174.151C164.631 173.087 163.801 171.562 163.133 169.927L158.186 171.949C158.986 173.908 159.955 175.68 160.674 176.888L165.265 174.151ZM163.133 169.927C162.775 169.049 162.477 168.175 162.278 167.349L157.082 168.602C157.36 169.755 157.754 170.892 158.186 171.949L163.133 169.927ZM162.321 167.565L161.993 165.453L156.711 166.273L157.039 168.386L162.321 167.565ZM162.02 165.715C162.016 165.631 162.013 165.549 162.012 165.47L156.667 165.544C156.669 165.7 156.675 165.856 156.684 166.011L162.02 165.715ZM161.977 165.937C162.149 164.881 162.199 163.275 161.758 161.689L156.609 163.122C156.795 163.79 156.782 164.587 156.702 165.077L161.977 165.937ZM161.758 161.689C161.304 160.058 160.189 158.052 157.764 157.2L155.994 162.243C156.136 162.293 156.225 162.362 156.308 162.468C156.408 162.594 156.52 162.804 156.609 163.122L161.758 161.689ZM154.36 158.828L154.239 159.169L159.276 160.956L159.397 160.616L154.36 158.828ZM155.873 162.584C155.874 162.585 155.876 162.585 155.877 162.586L157.696 157.56C157.678 157.553 157.66 157.547 157.643 157.541L155.873 162.584ZM175.129 209.406L175.128 209.404L170.566 212.189L170.568 212.192L175.129 209.406ZM140.598 162.745L156.787 162.745L156.787 157.4L140.598 157.4L140.598 162.745Z" fill="#A1F394" mask="url(#path-5-inside-2_557_2912)"/>
</g>
<g filter="url(#filter2_f_557_2912)">
<path d="M140.376 160.152L140.554 160.089L140.598 160.34L156.787 160.34L156.831 160.088L157.01 160.152L157.038 160.072C158.078 160.537 158.645 161.467 158.926 162.477C159.227 163.558 159.197 164.72 159.076 165.464L159.072 165.487L159.072 165.511C159.074 165.632 159.078 165.755 159.085 165.878L159.086 165.891L159.088 165.904L159.416 168.016L159.418 168.027L159.42 168.038C159.663 169.044 160.013 170.063 160.412 171.039C161.147 172.837 162.043 174.485 162.723 175.627C160.855 184.203 162.804 191.938 165.916 198.81C165.961 198.91 166.006 199.01 166.052 199.11L166.056 199.119L166.061 199.127L171.903 209.761L171.903 209.761L171.909 209.771C172.147 210.162 172.383 210.549 172.617 210.932L172.619 210.935L172.619 210.936L172.62 210.938L172.62 210.938L172.621 210.939L172.621 210.939C172.621 210.939 172.621 210.939 172.621 210.94C173.533 212.435 174.409 213.871 175.203 215.249L175.209 215.259L175.216 215.269L175.821 216.129L175.84 216.155L175.863 216.175C184.361 223.674 189.716 234.616 189.716 246.802C189.716 269.405 171.291 287.73 148.561 287.73C125.83 287.73 107.406 269.405 107.406 246.802C107.406 234.329 113.015 223.16 121.863 215.653L121.893 215.627L121.914 215.594L122.586 214.555L122.586 214.555L122.592 214.545C123.274 213.383 124.007 212.181 124.765 210.938L124.767 210.935C125.255 210.134 125.754 209.316 126.255 208.483C128.063 205.476 129.912 202.25 131.47 198.81C132.36 196.844 133.154 194.808 133.792 192.702L134.134 192.823L134.15 192.784L134.16 192.76L134.165 192.733L134.173 192.693L133.821 192.607C135.391 187.375 135.988 181.713 134.662 175.627C135.342 174.485 136.238 172.837 136.973 171.039C137.339 170.144 137.664 169.214 137.902 168.29L137.903 168.29L137.953 168.086C137.996 167.913 138.035 167.74 138.071 167.568L138.221 167.568L138.223 167.568L138.492 167.568L138.49 167.299L138.49 167.287L138.223 167.264L138.223 167.033L138.221 167.033L138.221 167.263L138.131 167.256C138.24 166.662 138.305 166.076 138.313 165.511L138.313 165.487L138.31 165.464C138.188 164.72 138.159 163.558 138.459 162.477C138.741 161.467 139.307 160.537 140.347 160.072L140.376 160.152Z" stroke="#A1F394" stroke-width="0.534483"/>
</g>
<g filter="url(#filter3_f_557_2912)">
<path d="M135.074 192.446C134.42 194.586 133.617 196.644 132.73 198.617C131.131 202.172 129.243 205.482 127.434 208.51C126.933 209.349 126.434 210.172 125.95 210.971L125.947 210.976L123.89 209.73L125.947 210.976C125.192 212.222 124.473 213.409 123.806 214.553L123.78 214.598L123.752 214.641L123.085 215.68L122.893 215.978L122.623 216.209C114.288 223.327 109.009 233.911 109.009 245.732C109.009 267.158 126.36 284.523 147.759 284.523C169.158 284.523 186.509 267.158 186.509 245.732C186.509 234.182 181.469 223.814 173.464 216.704L173.252 216.517L173.09 216.285L172.489 215.426L172.426 215.336L172.372 215.242C171.6 213.893 170.745 212.482 169.837 210.984C169.836 210.982 169.835 210.98 169.834 210.978L135.074 192.446ZM135.074 192.446L135.405 192.563L135.421 192.524L135.512 192.303L135.557 192.069L135.565 192.029L135.224 191.945C136.751 186.736 137.38 181.047 136.208 174.924C136.846 173.792 137.592 172.343 138.229 170.774C138.415 170.315 138.594 169.841 138.759 169.359L138.853 169.359L139.028 168.636L139.906 168.636L139.893 166.218L139.893 166.207L135.074 192.446ZM139.848 158.912L139.757 158.653L139.848 158.912ZM169.833 210.977L169.833 210.977L155.768 161.409C155.852 161.556 155.93 161.744 155.995 161.977C156.193 162.693 156.178 163.534 156.094 164.054L156.06 164.261L156.063 164.471C156.065 164.623 156.071 164.775 156.079 164.926L156.085 165.044L156.103 165.161L156.429 167.273L156.444 167.371L156.467 167.467C156.739 168.603 157.126 169.726 157.551 170.774C158.188 172.343 158.934 173.792 159.571 174.924C157.878 183.775 159.946 191.716 163.05 198.617C163.097 198.721 163.144 198.824 163.191 198.928L163.226 199.006L163.268 199.082L169.073 209.715L169.098 209.761L169.125 209.806C169.362 210.199 169.597 210.587 169.829 210.97L169.83 210.971L169.832 210.975L169.833 210.976L169.833 210.977Z" stroke="#A1F394" stroke-width="4.81034"/>
</g>
<g filter="url(#filter4_f_557_2912)">
<rect x="157.38" y="165.067" width="17.6379" height="6.41379" transform="rotate(180 157.38 165.067)" fill="#A1F394"/>
</g>
<rect x="157.38" y="148.498" width="18.7069" height="0.534483" transform="rotate(180 157.38 148.498)" fill="#382928"/>
<rect x="157.38" y="144.222" width="18.7069" height="0.534483" transform="rotate(180 157.38 144.222)" fill="#382928"/>
<rect x="157.38" y="140.48" width="18.7069" height="0.534483" transform="rotate(180 157.38 140.48)" fill="#382928"/>
<rect x="157.38" y="138.274" width="18.7069" height="0.534483" transform="rotate(180 157.38 138.274)" fill="#382928"/>
<g filter="url(#filter5_f_557_2912)">
<path d="M105 245.506C105 255.27 108.427 264.72 114.676 272.189C120.925 279.657 129.594 284.664 139.154 286.325C148.713 287.986 158.549 286.195 166.924 281.268C175.299 276.34 181.676 268.594 184.928 259.395L146.155 245.506L105 245.506Z" fill="#A1F394"/>
</g>
<g filter="url(#filter6_f_557_2912)">
<ellipse cx="165.13" cy="226.799" rx="16.8362" ry="16.3017" transform="rotate(180 165.13 226.799)" fill="#A1F394"/>
</g>
<line x1="148.084" y1="133.005" x2="147.32" y2="0.00734525" stroke="black" stroke-width="2.55667"/>
<path d="M296.035 246.001C296.035 321.113 229.765 382.002 148.017 382.002C66.2696 382.002 0 321.113 0 246.001C0 170.89 66.2696 110 148.017 110C229.765 110 296.035 170.89 296.035 246.001Z" fill="#A1F394" fill-opacity="0.1"/>
<path d="M266.431 246.001C266.431 306.09 213.416 354.802 148.017 354.802C82.6192 354.802 29.6035 306.09 29.6035 246.001C29.6035 185.912 82.6192 137.2 148.017 137.2C213.416 137.2 266.431 185.912 266.431 246.001Z" fill="#A1F394" fill-opacity="0.1"/>
<path d="M236.828 246.001C236.828 291.068 197.066 327.602 148.017 327.602C98.9688 327.602 59.207 291.068 59.207 246.001C59.207 200.934 98.9688 164.401 148.017 164.401C197.066 164.401 236.828 200.934 236.828 246.001Z" fill="#A1F394" fill-opacity="0.1"/>
<path d="M207.224 246.001C207.224 276.046 180.716 300.402 148.017 300.402C115.318 300.402 88.8103 276.046 88.8103 246.001C88.8103 215.957 115.318 191.601 148.017 191.601C180.716 191.601 207.224 215.957 207.224 246.001Z" fill="#A1F394" fill-opacity="0.1"/>
<defs>
<filter id="filter0_i_557_2912" x="136.001" y="130.394" width="24.5862" height="32.6035" filterUnits="userSpaceOnUse" color-interpolation-filters="sRGB">
<feFlood flood-opacity="0" result="BackgroundImageFix"/>
<feBlend mode="normal" in="SourceGraphic" in2="BackgroundImageFix" result="shape"/>
<feColorMatrix in="SourceAlpha" type="matrix" values="0 0 0 0 0 0 0 0 0 0 0 0 0 0 0 0 0 0 127 0" result="hardAlpha"/>
<feOffset dy="2.13793"/>
<feGaussianBlur stdDeviation="1.06897"/>
<feComposite in2="hardAlpha" operator="arithmetic" k2="-1" k3="1"/>
<feColorMatrix type="matrix" values="0 0 0 0 0 0 0 0 0 0 0 0 0 0 0 0 0 0 0.25 0"/>
<feBlend mode="normal" in2="shape" result="effect1_innerShadow_557_2912"/>
</filter>
<filter id="filter1_f_557_2912" x="99.1212" y="151.705" width="98.8792" height="144.31" filterUnits="userSpaceOnUse" color-interpolation-filters="sRGB">
<feFlood flood-opacity="0" result="BackgroundImageFix"/>
<feBlend mode="normal" in="SourceGraphic" in2="BackgroundImageFix" result="shape"/>
<feGaussianBlur stdDeviation="4.00862" result="effect1_foregroundBlur_557_2912"/>
</filter>
<filter id="filter2_f_557_2912" x="80.4143" y="132.998" width="136.293" height="181.724" filterUnits="userSpaceOnUse" color-interpolation-filters="sRGB">
<feFlood flood-opacity="0" result="BackgroundImageFix"/>
<feBlend mode="normal" in="SourceGraphic" in2="BackgroundImageFix" result="shape"/>
<feGaussianBlur stdDeviation="13.3621" result="effect1_foregroundBlur_557_2912"/>
</filter>
<filter id="filter3_f_557_2912" x="93.2417" y="145.291" width="109.034" height="155" filterUnits="userSpaceOnUse" color-interpolation-filters="sRGB">
<feFlood flood-opacity="0" result="BackgroundImageFix"/>
<feBlend mode="normal" in="SourceGraphic" in2="BackgroundImageFix" result="shape"/>
<feGaussianBlur stdDeviation="6.68103" result="effect1_foregroundBlur_557_2912"/>
</filter>
<filter id="filter4_f_557_2912" x="136.535" y="155.446" width="24.0517" height="12.8276" filterUnits="userSpaceOnUse" color-interpolation-filters="sRGB">
<feFlood flood-opacity="0" result="BackgroundImageFix"/>
<feBlend mode="normal" in="SourceGraphic" in2="BackgroundImageFix" result="shape"/>
<feGaussianBlur stdDeviation="1.60345" result="effect1_foregroundBlur_557_2912"/>
</filter>
<filter id="filter5_f_557_2912" x="24.8278" y="165.334" width="240.273" height="201.767" filterUnits="userSpaceOnUse" color-interpolation-filters="sRGB">
<feFlood flood-opacity="0" result="BackgroundImageFix"/>
<feBlend mode="normal" in="SourceGraphic" in2="BackgroundImageFix" result="shape"/>
<feGaussianBlur stdDeviation="40.0862" result="effect1_foregroundBlur_557_2912"/>
</filter>
<filter id="filter6_f_557_2912" x="68.121" y="130.325" width="194.017" height="192.948" filterUnits="userSpaceOnUse" color-interpolation-filters="sRGB">
<feFlood flood-opacity="0" result="BackgroundImageFix"/>
<feBlend mode="normal" in="SourceGraphic" in2="BackgroundImageFix" result="shape"/>
<feGaussianBlur stdDeviation="40.0862" result="effect1_foregroundBlur_557_2912"/>
</filter>
</defs>
</svg>
